<svg xmlns="http://www.w3.org/2000/svg" version="1.1" xmlns:xlink="http://www.w3.org/1999/xlink" width="1000" height="1000"><metadata><rdf:RDF xmlns:rdf="http://www.w3.org/1999/02/22-rdf-syntax-ns#" xmlns:dc="http://purl.org/dc/elements/1.1/"><rdf:Description><dc:creator>RealFaviconGenerator</dc:creator><dc:source>https://realfavicongenerator.net</dc:source></rdf:Description></rdf:RDF></metadata><style>
    #light-icon {
      display: inline;
    }
    #dark-icon {
      display: none;
    }

    @media (prefers-color-scheme: dark) {
      #light-icon {
        display: none;
      }
      #dark-icon {
        display: inline;
      }
    }
  </style><g id="light-icon"><svg xmlns="http://www.w3.org/2000/svg" version="1.1" xmlns:xlink="http://www.w3.org/1999/xlink" width="1000" height="1000"><g><g transform="matrix(5.291005291005291,0,0,5.291005291005291,0,63.492063492063494)"><svg xmlns="http://www.w3.org/2000/svg" width="189" height="165" viewBox="0 0 189 165" fill="none"><path d="M36.0784 14.1889C30.4021 14.5885 25.0017 15.9968 20.3341 19.4513C16.6779 22.156 14.3402 25.7251 13.4473 30.2391C17.4289 22.8797 23.9539 19.2027 31.843 18.4087C37.7562 17.8126 43.8685 17.8555 49.7609 18.63C65.474 20.6982 79.9427 26.6961 93.7997 34.1413C96.8936 35.8034 99.4162 35.3427 103.186 33.7261C94.2266 29.6247 86.1436 25.5428 77.7742 22.1769C64.4392 16.8155 50.6721 13.1606 36.0784 14.1889ZM160.63 82.5443C159.147 85.5706 159.027 87.6935 160.678 90.0234C166.162 97.7615 170.877 105.93 173.238 115.22C176.69 128.802 172.766 140.669 158.568 144.708C158.403 144.754 158.276 144.938 157.653 145.455C159.668 145.095 161.163 144.893 162.628 144.554C173.461 142.042 179.661 134.503 179.304 123.398C178.794 107.475 169.956 95.239 160.63 82.5443ZM151.983 0H130.268V22.0337H151.983V0ZM139.188 50.103H161.241V28.3908H139.188V50.103ZM159.63 53.4455V75.2176H181.695V53.4455H159.63ZM124.106 78.115H142.579V59.7596H124.106V78.115ZM105.538 54.4256H123.983V36.0872H105.538V54.4256ZM93.7411 80.5125H112.038V62.2327H93.7411V80.5125Z" fill="#343434"></path><path d="M184.281 119.604C190.556 131.938 189.173 144.98 181.25 152.066C175.638 157.085 168.607 158.742 161.366 159.344C148.362 160.426 135.632 158.799 123.207 154.81C120.969 154.09 119.142 150.859 119.828 148.877C120.578 146.704 123.717 144.955 125.886 145.584C135.108 148.252 144.466 149.974 154.11 149.719C160.659 149.545 167.045 148.542 172.986 145.582C181.923 141.131 186.619 131.198 184.474 121.344C184.371 120.873 184.363 120.383 184.281 119.604Z" fill="#DB242F"></path><path d="M114.683 155.221C112.253 146.897 112.354 146.921 118.517 141.036C119.821 139.79 120.949 139.477 122.668 140.014C127.517 141.531 132.423 142.866 137.924 144.451C137.369 142.735 137.123 141.675 136.698 140.695C132.397 130.795 120.477 126.924 111.478 132.9C107.038 135.849 102.999 136.044 98.5422 133.563C97.6831 133.086 96.7707 132.706 95.9025 132.244C75.4112 121.379 56.8034 107.932 40.446 91.4628C29.4279 80.3691 19.5408 68.3748 13.1356 53.9503C11.1558 49.4923 9.56916 44.7323 8.68016 39.9463C6.62231 28.8578 9.64075 19.658 20.4129 13.7852C11.4981 14.4477 3.18866 21.5922 0.947281 30.231C-1.06631 38.0017 0.368064 45.4924 3.01945 52.8101C8.52136 67.9921 17.9802 80.6594 28.7237 92.4325C30.5003 94.365 32.3236 96.2542 34.1918 98.0984C39.5739 103.211 52.7371 115.11 52.7371 115.11C52.7371 115.11 77.2387 136.402 97.074 145.008L97.5321 145.205C100.758 147.603 103.229 150.664 104.804 154.586C106.966 159.973 111.202 163.3 116.827 164.527C121.501 165.547 126.037 165.043 130.45 161.765C125.685 160.382 121.408 159.265 117.237 157.84C116.186 157.481 114.992 156.275 114.683 155.221Z" fill="#DB242F"></path><path d="M31.8766 100.537C31.6631 100.325 31.4744 100.134 31.2714 99.9292C31.2609 102.825 31.2649 105.719 31.2518 108.614C31.2453 110.22 30.5307 112.099 29.535 113.375C25.6783 118.313 21.491 122.995 17.6305 127.932C16.8729 128.901 16.5345 130.693 16.8274 131.905C17.8973 136.322 21.3544 138.454 26.8979 138.457C44.0194 138.463 61.1421 138.462 78.2635 138.462C63.8195 129.144 51.2576 118.281 50.5313 117.648C50.3491 117.487 37.2249 105.619 31.8766 100.537ZM177.29 127.303C173.245 122.783 169.388 118.083 165.668 113.288C164.676 112.011 164.011 110.136 163.975 108.52C163.803 100.859 163.902 93.1921 163.904 85.5256V82.4108H155.469C155.469 87.9401 155.476 93.2897 155.467 98.6406C155.457 104.281 153.799 105.947 148.168 105.947C119.344 105.949 90.5181 105.948 61.6926 105.943C72.6613 114.649 84.6284 122.456 97.4779 129.27C97.8306 129.456 98.1898 129.626 98.5478 129.797C99.0984 130.06 99.6464 130.326 100.179 130.621C103.564 132.506 106.21 132.358 109.617 130.095C112.075 128.456 114.864 127.376 117.786 126.933C120.708 126.49 123.692 126.694 126.526 127.531C132.137 129.189 136.764 133.145 139.365 138.457C149.161 138.454 158.958 138.456 168.753 138.471C170.131 138.474 171.409 138.309 172.581 137.952C174.053 134.508 176.536 131.725 178.045 128.328C177.826 127.963 177.574 127.62 177.29 127.303ZM39.6707 85.0101L41.3237 86.7022V35.6074H104.523V32.3938H105.07V26.9595H104.523V26.6719C104.523 26.6719 40.2343 26.9699 39.8919 26.9699C33.1899 26.9725 31.3299 28.8182 31.3286 35.4447C31.3273 49.1156 31.3312 62.7864 31.3208 76.4572C33.9915 79.6857 36.7793 82.8156 39.6785 85.8406L39.6707 85.0101Z" fill="#343434"></path></svg></g></g></svg></g><g id="dark-icon"><svg xmlns="http://www.w3.org/2000/svg" version="1.1" xmlns:xlink="http://www.w3.org/1999/xlink" width="1000" height="1000"><g><g transform="matrix(5.291005291005291,0,0,5.291005291005291,0,63.492063492063494)"><svg xmlns="http://www.w3.org/2000/svg" width="189" height="165" viewBox="0 0 189 165" fill="none"><path d="M36.0784 14.1889C30.4021 14.5885 25.0017 15.9968 20.3341 19.4513C16.6779 22.156 14.3402 25.7251 13.4473 30.2391C17.4289 22.8797 23.9539 19.2027 31.843 18.4087C37.7562 17.8126 43.8685 17.8555 49.7609 18.63C65.474 20.6982 79.9427 26.6961 93.7997 34.1413C96.8936 35.8034 99.4162 35.3427 103.186 33.7261C94.2266 29.6247 86.1436 25.5428 77.7742 22.1769C64.4392 16.8155 50.6721 13.1606 36.0784 14.1889ZM160.63 82.5443C159.147 85.5706 159.027 87.6935 160.678 90.0234C166.162 97.7615 170.877 105.93 173.238 115.22C176.69 128.802 172.766 140.669 158.568 144.708C158.403 144.754 158.276 144.938 157.653 145.455C159.668 145.095 161.163 144.893 162.628 144.554C173.461 142.042 179.661 134.503 179.304 123.398C178.794 107.475 169.956 95.239 160.63 82.5443ZM151.983 0H130.268V22.0337H151.983V0ZM139.188 50.103H161.241V28.3908H139.188V50.103ZM159.63 53.4455V75.2176H181.695V53.4455H159.63ZM124.106 78.115H142.579V59.7596H124.106V78.115ZM105.538 54.4256H123.983V36.0872H105.538V54.4256ZM93.7411 80.5125H112.038V62.2327H93.7411V80.5125Z" fill="white"></path><path d="M184.281 119.604C190.556 131.938 189.173 144.98 181.25 152.066C175.638 157.085 168.607 158.742 161.366 159.344C148.362 160.426 135.632 158.799 123.207 154.81C120.969 154.09 119.142 150.859 119.828 148.877C120.578 146.704 123.717 144.955 125.886 145.584C135.108 148.252 144.466 149.974 154.11 149.719C160.659 149.545 167.045 148.542 172.986 145.582C181.923 141.131 186.619 131.198 184.474 121.344C184.371 120.873 184.363 120.383 184.281 119.604Z" fill="#DB242F"></path><path d="M114.683 155.221C112.253 146.897 112.354 146.921 118.517 141.036C119.821 139.79 120.949 139.477 122.668 140.014C127.517 141.531 132.423 142.866 137.924 144.451C137.369 142.735 137.123 141.675 136.698 140.695C132.397 130.795 120.477 126.924 111.478 132.9C107.038 135.849 102.999 136.044 98.5422 133.563C97.6831 133.086 96.7707 132.706 95.9025 132.244C75.4112 121.379 56.8034 107.932 40.446 91.4628C29.4279 80.3691 19.5408 68.3748 13.1356 53.9503C11.1558 49.4923 9.56916 44.7323 8.68016 39.9463C6.62231 28.8578 9.64075 19.658 20.4129 13.7852C11.4981 14.4477 3.18866 21.5922 0.947281 30.231C-1.06631 38.0016 0.368064 45.4924 3.01945 52.8101C8.52136 67.9921 17.9802 80.6594 28.7237 92.4325C30.5003 94.365 32.3236 96.2542 34.1918 98.0984C39.5739 103.211 52.7371 115.11 52.7371 115.11C52.7371 115.11 77.2387 136.402 97.074 145.008L97.5321 145.205C100.758 147.603 103.229 150.664 104.804 154.586C106.966 159.973 111.202 163.3 116.827 164.527C121.501 165.547 126.037 165.043 130.45 161.765C125.685 160.382 121.408 159.265 117.237 157.84C116.186 157.481 114.992 156.275 114.683 155.221Z" fill="#DB242F"></path><path d="M31.8766 100.537C31.6631 100.325 31.4744 100.134 31.2714 99.9292C31.2609 102.825 31.2649 105.719 31.2518 108.614C31.2453 110.22 30.5307 112.099 29.535 113.375C25.6783 118.313 21.491 122.995 17.6305 127.932C16.8729 128.901 16.5345 130.693 16.8274 131.905C17.8973 136.322 21.3544 138.454 26.8979 138.457C44.0194 138.463 61.1421 138.462 78.2635 138.462C63.8195 129.144 51.2576 118.281 50.5313 117.648C50.3491 117.487 37.2249 105.619 31.8766 100.537ZM177.29 127.303C173.245 122.783 169.388 118.083 165.668 113.288C164.676 112.011 164.011 110.136 163.975 108.52C163.803 100.859 163.902 93.1921 163.904 85.5256V82.4108H155.469C155.469 87.9401 155.476 93.2897 155.467 98.6406C155.457 104.281 153.799 105.947 148.168 105.947C119.344 105.949 90.5182 105.948 61.6926 105.943C72.6613 114.649 84.6284 122.456 97.4779 129.27C97.8306 129.456 98.1898 129.626 98.5478 129.797C99.0984 130.06 99.6464 130.326 100.179 130.621C103.564 132.506 106.21 132.358 109.617 130.095C112.075 128.456 114.864 127.376 117.786 126.933C120.708 126.49 123.692 126.694 126.526 127.531C132.137 129.189 136.764 133.145 139.365 138.457C149.161 138.454 158.958 138.456 168.753 138.471C170.131 138.474 171.409 138.309 172.581 137.952C174.053 134.508 176.536 131.725 178.045 128.328C177.826 127.963 177.574 127.62 177.29 127.303ZM39.6707 85.0101L41.3237 86.7022V35.6074H104.523V32.3938H105.07V26.9595H104.523V26.6719C104.523 26.6719 40.2343 26.9699 39.8919 26.9699C33.1899 26.9725 31.3299 28.8182 31.3286 35.4447C31.3273 49.1156 31.3312 62.7864 31.3208 76.4572C33.9915 79.6857 36.7793 82.8156 39.6785 85.8406L39.6707 85.0101Z" fill="white"></path></svg></g></g></svg></g></svg>